# xmcd
#
# Track frame offsets:
#	180
#	11852
#	25170
#	37934
#	53566
#	68820
#	80114
#	90766
#	104494
#	117622
#	127511
#	140563
#	152549
#	162942
#	177005
#	189823
#	202446
#	215376
#
# Disc length: 3005 seconds
#
# Revision: 0
# Processed by: cddbd v1.5.2PL0 Copyright (c) Steve Scherf et al.
# Submitted via: audiograbber 1.81.03
#
DISCID=ea0bbb12
DTITLE=Various Artist - Blues festival CD 1
DYEAR=2005
DGENRE=Blues 
TTITLE0=Jelly Roll Baker
TTITLE1=She's Gone
TTITLE2=Nobody's Blues but Mine
TTITLE3=Decoration Blues
TTITLE4=Friendless Blues
TTITLE5=Black Panther Blues
TTITLE6=Baby Let's Have Some Fun
TTITLE7=Take a Walk With Me
TTITLE8='41 Blues
TTITLE9=I Wanna Walk
TTITLE10=Brother James
TTITLE11=Miss Martha King
TTITLE12=Want A Blues
TTITLE13=Goodbye Blues
TTITLE14=Dupree Shake Dance
TTITLE15=You're Not Goin' To Worry My Life Anymore
TTITLE16=Cherry Red
TTITLE17=Hey Boogie
EXTD=
EXTT0=
EXTT1=
EXTT2=
EXTT3=
EXTT4=
EXTT5=
EXTT6=
EXTT7=
EXTT8=
EXTT9=
EXTT10=
EXTT11=
EXTT12=
EXTT13=
EXTT14=
EXTT15=
EXTT16=
EXTT17=
PLAYORDER=
